<svg id="Capa_1" data-name="Capa 1" xmlns="http://www.w3.org/2000/svg" viewBox="0 0 60 60"><defs><style>.cls-1{fill:#352c60;}</style></defs><title>exclamation</title><path class="cls-1" d="M30,40.9228a1.5,1.5,0,0,0,1.5-1.5V12.4834a1.5,1.5,0,0,0-3,0V39.4228A1.5,1.5,0,0,0,30,40.9228Z"/><path class="cls-1" d="M30,43.7811a1.9113,1.9113,0,1,0,1.9113,1.9112A1.9134,1.9134,0,0,0,30,43.7811Z"/><path class="cls-1" d="M51.2132,8.7868A30,30,0,1,0,8.7868,51.2132,30,30,0,1,0,51.2132,8.7868ZM49.0919,49.0919A27,27,0,0,1,10.9081,10.9081,27,27,0,0,1,49.0919,49.0919Z"/></svg>