<svg id="Capa_1" data-name="Capa 1" xmlns="http://www.w3.org/2000/svg" viewBox="0 0 60 60"><defs><style>.cls-1{fill:#352c60;}</style></defs><title>info-circular-button</title><path class="cls-1" d="M57.6059,18.3151A29.406,29.406,0,0,0,41.63,2.3964,29.477,29.477,0,0,0,29.951,0,29.162,29.162,0,0,0,18.3059,2.3964,29.49,29.49,0,0,0,2.3627,18.3151a29.9957,29.9957,0,0,0,0,23.3375,29.5562,29.5562,0,0,0,15.9432,15.952A29.161,29.161,0,0,0,29.951,60a29.4886,29.4886,0,0,0,11.6784-2.3954,29.47,29.47,0,0,0,15.9765-15.952,29.6335,29.6335,0,0,0,0-23.3375ZM29.951,13.1279A3.4333,3.4333,0,1,1,26.52,16.5612,3.4323,3.4323,0,0,1,29.951,13.1279ZM33.48,43.88a2.99,2.99,0,1,1-5.98,0V28.1853a2.99,2.99,0,1,1,5.98,0Z"/></svg>