<svg id="Capa_1" data-name="Capa 1" xmlns="http://www.w3.org/2000/svg" viewBox="0 0 60 60"><defs><style>.cls-1{fill:#352c60;}</style></defs><title>late</title><path class="cls-1" d="M24.1882,25.8162A12.9081,12.9081,0,1,0,11.28,12.9081,12.9227,12.9227,0,0,0,24.1882,25.8162ZM24.1882,3A9.9081,9.9081,0,1,1,14.28,12.9081,9.9193,9.9193,0,0,1,24.1882,3Z"/><path class="cls-1" d="M44.7978,34.6082a11.8777,11.8777,0,0,0-11.6256-9.4446h-.3948l-6.0623,3.4275a5.1715,5.1715,0,0,1-5.0671-.0021L15.6,25.1636h-.3952A11.889,11.889,0,0,0,3.3284,37.0387v14.065h28.508A12.71,12.71,0,1,0,44.7978,34.6082ZM6.3284,48.1037V37.0387a8.8863,8.8863,0,0,1,8.4951-8.867l5.3458,3.0274a8.186,8.186,0,0,0,8.022.0037l5.3612-3.0311a8.8817,8.8817,0,0,1,8.18,6.5119,12.7554,12.7554,0,0,0-10.57,12.5649q0,.4282.0284.8552ZM43.9615,57a9.71,9.71,0,1,1,9.71-9.71A9.7209,9.7209,0,0,1,43.9615,57Z"/><path class="cls-1" d="M45.4615,46.7V40.5082a1.5,1.5,0,0,0-3,0V47.29a1.5,1.5,0,0,0,.4019,1.0219l3.7443,4.0237a1.5,1.5,0,0,0,2.1963-2.0437Z"/></svg>